tugOfWar_states
version=1
nRows=27
nColumns=17
inDegrees=yes

# SIMM Motion File Header:
name tugOfWar_states
datacolumns 17
datarows 27
otherdata 1
range 3.22706985 3.29557078
endheader
time	blockToGround_xTranslation	blockToGround_yTranslation	blockToGround_zTranslation	blockToGround_xRotation	blockToGround_yRotation	blockToGround_zRotation	blockToGround_xTranslation_u	blockToGround_yTranslation_u	blockToGround_zTranslation_u	blockToGround_xRotation_u	blockToGround_yRotation_u	blockToGround_zRotation_u	muscle1.activation	muscle1.fiber_length	muscle2.activation	muscle2.fiber_length
      3.22706985	     -0.02864851	     -0.00026134	      0.02143585	      8.63545664	    -72.76971315	     13.53049035	      0.00636018	      0.00052639	      0.00111228	      2.32847724	    -16.32401446	     -6.18664916	      0.03967358	      0.15218190	      0.00198368	      0.12085446
      3.23002967	     -0.02862959	     -0.00025977	      0.02143928	      8.60858890	    -72.81954360	     13.49453965	      0.00637801	      0.00053411	      0.00121147	      2.70033815	    -15.87831885	     -5.94701448	      0.03955633	      0.15222161	      0.00197782	      0.12088670
      3.23298949	     -0.02861079	     -0.00025819	      0.02144286	      8.58498197	    -72.86793973	     13.46096858	      0.00632670	      0.00052743	      0.00117240	      3.01885902	    -15.46919050	     -5.52244652	      0.03943942	      0.15226042	      0.00197197	      0.12091795
      3.23594931	     -0.02859239	     -0.00025666	      0.02144626	      8.56609419	    -72.91490181	     13.43151523	      0.00605490	      0.00050629	      0.00114835	      3.21044880	    -15.02109747	     -4.98927322	      0.03932286	      0.15229841	      0.00196614	      0.12094813
      3.23858249	     -0.02857679	     -0.00025536	      0.02144910	      8.55389365	    -72.95539307	     13.40972540	      0.00579332	      0.00047632	      0.00098186	      3.34064136	    -14.68110107	     -4.36562681	      0.03921945	      0.15233113	      0.00196097	      0.12097460
      3.24121567	     -0.02856208	     -0.00025416	      0.02145150	      8.54702651	    -72.99472790	     13.39329048	      0.00535338	      0.00043599	      0.00084508	      3.35957871	    -14.31441926	     -3.68288115	      0.03911631	      0.15236294	      0.00195582	      0.12100063
      3.24384885	     -0.02854859	     -0.00025308	      0.02145342	      8.54587892	    -73.03287022	     13.38287123	      0.00489115	      0.00038643	      0.00059334	      3.33148694	    -14.00262935	     -2.88934178	      0.03901345	      0.15239355	      0.00195067	      0.12102667
      3.24648204	     -0.02853646	     -0.00025213	      0.02145466	      8.55117257	    -73.06989227	     13.37938345	      0.00429259	      0.00032813	      0.00035179	      3.20467670	    -13.68698853	     -2.04989404	      0.03891085	      0.15242301	      0.00194554	      0.12105275
      3.24911522	     -0.02852597	     -0.00025135	      0.02145517	      8.56316909	    -73.10580326	     13.38333566	      0.00368015	      0.00026236	      0.00001278	      3.03031262	    -13.42822405	     -1.12992959	      0.03880853	      0.15245115	      0.00194043	      0.12107923
      3.25174840	     -0.02851721	     -0.00025076	      0.02145476	      8.58237108	    -73.14069844	     13.39540418	      0.00295285	      0.00018978	     -0.00030800	      2.76406336	    -13.17349750	     -0.19104920	      0.03870647	      0.15247800	      0.00193532	      0.12110616
      3.25438158	     -0.02851039	     -0.00025036	      0.02145344	      8.60882627	    -73.17461243	     13.41585403	      0.00224233	      0.00011183	     -0.00072452	      2.46261518	    -12.98538843	      0.80357789	      0.03860469	      0.15250345	      0.00193023	      0.12113388
      3.25701476	     -0.02850552	     -0.00025017	      0.02145102	      8.64286157	    -73.20767086	     13.44514281	      0.00142301	      0.00002925	     -0.00109420	      2.07270988	    -12.79815252	      1.78072212	      0.03850317	      0.15252756	      0.00192516	      0.12116238
      3.25964794	     -0.02850280	     -0.00025021	      0.02144755	      8.68424512	    -73.23991668	     13.48322503	      0.00067373	     -0.00005632	     -0.00157617	      1.67286345	    -12.69549964	      2.79681039	      0.03840192	      0.15255025	      0.00192010	      0.12119207
      3.26228112	     -0.02850212	     -0.00025047	      0.02144284	      8.73319831	    -73.27151497	     13.53038772	     -0.00020418	     -0.00014426	     -0.00195395	      1.17987115	    -12.57527781	      3.74747829	      0.03830093	      0.15257166	      0.00191505	      0.12122278
      3.26449766	     -0.02850328	     -0.00025087	      0.02143805	      8.77983469	    -73.29763103	     13.57680893	     -0.00083001	     -0.00021867	     -0.00238863	      0.78635661	    -12.56037764	      4.57363770	      0.03821613	      0.15258860	      0.00191081	      0.12124980
      3.26671419	     -0.02850589	     -0.00025144	      0.02143235	      8.83152359	    -73.32343161	     13.62946166	     -0.00152617	     -0.00029313	     -0.00274513	      0.33991265	    -12.53592508	      5.33761304	      0.03813151	      0.15260469	      0.00190658	      0.12127770
      3.26955501	     -0.02851142	     -0.00025241	      0.02142386	      8.90455781	    -73.35609982	     13.70553885	     -0.00233946	     -0.00038704	     -0.00325047	     -0.22775824	    -12.57359212	      6.28642548	      0.03802334	      0.15262407	      0.00190117	      0.12131504
      3.27239582	     -0.02851922	     -0.00025364	      0.02141397	      8.98489862	    -73.38850090	     13.79093668	     -0.00318971	     -0.00047815	     -0.00366417	     -0.83935972	    -12.62004423	      7.12828030	      0.03791548	      0.15264220	      0.00189577	      0.12135404
      3.27458662	     -0.02852680	     -0.00025476	      0.02140552	      9.05121674	    -73.41335999	     13.86255765	     -0.00371758	     -0.00054523	     -0.00405915	     -1.27152833	    -12.73131507	      7.75763092	      0.03783251	      0.15265536	      0.00189163	      0.12138548
      3.27677742	     -0.02853557	     -0.00025602	      0.02139628	      9.12118357	    -73.43822917	     13.93898643	     -0.00428095	     -0.00060917	     -0.00436403	     -1.72937908	    -12.83202050	      8.29834233	      0.03774971	      0.15266795	      0.00188749	      0.12141789
      3.27970723	     -0.02854909	     -0.00025793	      0.02138290	      9.21955958	    -73.47157535	     14.04779316	     -0.00491797	     -0.00068830	     -0.00478702	     -2.30321583	    -13.02787854	      8.94376334	      0.03763927	      0.15268395	      0.00188196	      0.12146296
      3.28263703	     -0.02856437	     -0.00026005	      0.02136834	      9.32275112	    -73.50520941	     14.16331763	     -0.00554383	     -0.00075915	     -0.00508940	     -2.87869299	    -13.22485609	      9.43584012	      0.03752916	      0.15269923	      0.00187646	      0.12150978
      3.28482975	     -0.02857689	     -0.00026177	      0.02135688	      9.40230808	    -73.53062060	     14.25329319	     -0.00585909	     -0.00080567	     -0.00537230	     -3.24355589	    -13.43996498	      9.75916428	      0.03744696	      0.15271028	      0.00187235	      0.12154612
      3.28702246	     -0.02859010	     -0.00026358	      0.02134489	      9.48359031	    -73.55634965	     14.34588797	     -0.00618880	     -0.00084642	     -0.00555273	     -3.61148520	    -13.63608029	      9.97799807	      0.03736494	      0.15272114	      0.00186825	      0.12158328
      3.29008389	     -0.02860959	     -0.00026624	      0.02132754	      9.59885095	    -73.59286213	     14.47831419	     -0.00650614	     -0.00089250	     -0.00579112	     -4.05322039	    -13.95540561	     10.17554392	      0.03725072	      0.15273612	      0.00186254	      0.12163670
      3.29282733	     -0.02862775	     -0.00026874	      0.02131146	      9.70312243	    -73.62630159	     14.59910597	     -0.00674003	     -0.00092261	     -0.00589433	     -4.41182772	    -14.23354838	     10.20459896	      0.03714867	      0.15274959	      0.00185743	      0.12168577
      3.29557078	     -0.02864639	     -0.00027130	      0.02129515	      9.80719560	    -73.66047611	     14.72059400	     -0.00679926	     -0.00094137	     -0.00601546	     -4.67574225	    -14.56307103	     10.14819564	      0.03704689	      0.15276324	      0.00185234	      0.12173605
